<mxfile host="Electron" agent="Mozilla/5.0 (Windows NT 10.0; Win64; x64) AppleWebKit/537.36 (KHTML, like Gecko) draw.io/27.0.5 Chrome/134.0.6998.205 Electron/35.3.0 Safari/537.36" version="27.0.5" pages="2">
  <diagram name="Page-1" id="eDHUikgzPAHhZYfsEfDq">
    <mxGraphModel dx="3455" dy="2665" grid="1" gridSize="10" guides="1" tooltips="1" connect="1" arrows="0" fold="1" page="1" pageScale="1" pageWidth="850" pageHeight="1100" math="0" shadow="0">
      <root>
        <mxCell id="0" />
        <mxCell id="1" parent="0" />
        <mxCell id="2N4jEaxHrkHUBaCKsy_V-1" value="&lt;font style=&quot;font-size: 32px;&quot;&gt;USER&lt;/font&gt;" style="rounded=0;whiteSpace=wrap;html=1;fontSize=42;" vertex="1" parent="1">
          <mxGeometry x="710" y="230" width="120" height="60" as="geometry" />
        </mxCell>
        <mxCell id="2N4jEaxHrkHUBaCKsy_V-2" value="REVIEW" style="rounded=0;whiteSpace=wrap;html=1;fontSize=32;strokeWidth=5;" vertex="1" parent="1">
          <mxGeometry x="245" y="-520" width="180" height="60" as="geometry" />
        </mxCell>
        <mxCell id="2N4jEaxHrkHUBaCKsy_V-4" value="MESSAGE" style="rounded=0;whiteSpace=wrap;html=1;fontSize=32;strokeWidth=5;" vertex="1" parent="1">
          <mxGeometry x="1180" y="-240" width="160" height="60" as="geometry" />
        </mxCell>
        <mxCell id="2N4jEaxHrkHUBaCKsy_V-5" value="PAYMENT" style="rounded=0;whiteSpace=wrap;html=1;fontSize=32;strokeWidth=5;" vertex="1" parent="1">
          <mxGeometry x="1620" y="250" width="160" height="60" as="geometry" />
        </mxCell>
        <mxCell id="2N4jEaxHrkHUBaCKsy_V-6" value="BOOKING" style="rounded=0;whiteSpace=wrap;fontSize=32;" vertex="1" parent="1">
          <mxGeometry x="670" y="740" width="160" height="60" as="geometry" />
        </mxCell>
        <mxCell id="2N4jEaxHrkHUBaCKsy_V-7" value="PROPERTY" style="rounded=0;whiteSpace=wrap;html=1;fontSize=32;strokeWidth=5;" vertex="1" parent="1">
          <mxGeometry x="-160" y="250" width="180" height="60" as="geometry" />
        </mxCell>
        <mxCell id="2N4jEaxHrkHUBaCKsy_V-8" value="&lt;u&gt;&lt;font style=&quot;font-size: 25px;&quot;&gt;&lt;b&gt;Review_id&lt;/b&gt;&lt;/font&gt;&lt;/u&gt;" style="ellipse;whiteSpace=wrap;html=1;fontSize=22;strokeWidth=5;" vertex="1" parent="1">
          <mxGeometry x="425" y="-780" width="220" height="80" as="geometry" />
        </mxCell>
        <mxCell id="2N4jEaxHrkHUBaCKsy_V-10" value="&lt;font style=&quot;font-size: 25px;&quot;&gt;&lt;b&gt;Rating&lt;/b&gt;&lt;/font&gt;" style="ellipse;whiteSpace=wrap;html=1;fontSize=22;strokeWidth=5;" vertex="1" parent="1">
          <mxGeometry x="180" y="-830" width="180" height="80" as="geometry" />
        </mxCell>
        <mxCell id="2N4jEaxHrkHUBaCKsy_V-11" value="&lt;font style=&quot;font-size: 25px;&quot;&gt;&lt;b&gt;Comment&lt;/b&gt;&lt;/font&gt;" style="ellipse;whiteSpace=wrap;html=1;fontSize=22;strokeWidth=5;" vertex="1" parent="1">
          <mxGeometry x="-65" y="-800" width="200" height="80" as="geometry" />
        </mxCell>
        <mxCell id="2N4jEaxHrkHUBaCKsy_V-12" value="&lt;font style=&quot;font-size: 26px;&quot;&gt;&lt;b&gt;Created_at&lt;/b&gt;&lt;/font&gt;" style="ellipse;whiteSpace=wrap;html=1;fontSize=22;strokeWidth=5;" vertex="1" parent="1">
          <mxGeometry x="-270" y="-650" width="210" height="80" as="geometry" />
        </mxCell>
        <mxCell id="2N4jEaxHrkHUBaCKsy_V-13" value="&lt;h3&gt;&lt;u&gt;Payment_id&lt;/u&gt;&lt;/h3&gt;" style="ellipse;whiteSpace=wrap;html=1;fontSize=25;strokeWidth=5;" vertex="1" parent="1">
          <mxGeometry x="1800" y="60" width="280" height="80" as="geometry" />
        </mxCell>
        <mxCell id="2N4jEaxHrkHUBaCKsy_V-15" value="&lt;h3&gt;Payment_date&lt;/h3&gt;" style="ellipse;whiteSpace=wrap;html=1;fontSize=25;strokeWidth=5;" vertex="1" parent="1">
          <mxGeometry x="2030" y="310" width="210" height="80" as="geometry" />
        </mxCell>
        <mxCell id="2N4jEaxHrkHUBaCKsy_V-16" value="&lt;h3&gt;Payment_method&lt;/h3&gt;" style="ellipse;whiteSpace=wrap;html=1;fontSize=25;strokeWidth=5;" vertex="1" parent="1">
          <mxGeometry x="1880" y="470" width="240" height="80" as="geometry" />
        </mxCell>
        <mxCell id="2N4jEaxHrkHUBaCKsy_V-18" value="&lt;h3&gt;&lt;u&gt;&lt;b&gt;Booking_id&lt;/b&gt;&lt;/u&gt;&lt;/h3&gt;" style="ellipse;whiteSpace=wrap;html=1;fontSize=25;strokeWidth=5;" vertex="1" parent="1">
          <mxGeometry x="1090" y="780" width="220" height="80" as="geometry" />
        </mxCell>
        <mxCell id="2N4jEaxHrkHUBaCKsy_V-21" value="&lt;h3&gt;&lt;font style=&quot;font-size: 26px;&quot;&gt;Start_date&lt;/font&gt;&lt;/h3&gt;" style="ellipse;whiteSpace=wrap;html=1;strokeWidth=5;" vertex="1" parent="1">
          <mxGeometry x="980" y="920" width="210" height="80" as="geometry" />
        </mxCell>
        <mxCell id="2N4jEaxHrkHUBaCKsy_V-22" value="&lt;h3&gt;&lt;b&gt;End_date&lt;/b&gt;&lt;/h3&gt;" style="ellipse;whiteSpace=wrap;html=1;fontSize=25;strokeWidth=5;" vertex="1" parent="1">
          <mxGeometry x="790" y="1040" width="190" height="80" as="geometry" />
        </mxCell>
        <mxCell id="2N4jEaxHrkHUBaCKsy_V-41" value="&lt;h3&gt;&lt;b&gt;Total_price&lt;/b&gt;&lt;/h3&gt;" style="ellipse;whiteSpace=wrap;html=1;fontSize=25;strokeWidth=5;" vertex="1" parent="1">
          <mxGeometry x="470" y="1030" width="190" height="80" as="geometry" />
        </mxCell>
        <mxCell id="2N4jEaxHrkHUBaCKsy_V-42" value="&lt;h3&gt;&lt;b&gt;Status&lt;/b&gt;&lt;/h3&gt;" style="ellipse;whiteSpace=wrap;html=1;fontSize=25;strokeWidth=5;" vertex="1" parent="1">
          <mxGeometry x="320" y="900" width="160" height="80" as="geometry" />
        </mxCell>
        <mxCell id="2N4jEaxHrkHUBaCKsy_V-43" value="&lt;h3&gt;&lt;font style=&quot;font-size: 25px;&quot;&gt;Created_at&lt;/font&gt;&lt;/h3&gt;" style="ellipse;whiteSpace=wrap;html=1;strokeWidth=5;" vertex="1" parent="1">
          <mxGeometry x="180" y="770" width="180" height="80" as="geometry" />
        </mxCell>
        <mxCell id="2N4jEaxHrkHUBaCKsy_V-45" value="&lt;h3&gt;&lt;font style=&quot;font-size: 25px;&quot;&gt;Property_id&lt;/font&gt;&lt;/h3&gt;" style="ellipse;whiteSpace=wrap;html=1;strokeWidth=5;" vertex="1" parent="1">
          <mxGeometry x="-640" y="20" width="240" height="80" as="geometry" />
        </mxCell>
        <mxCell id="2N4jEaxHrkHUBaCKsy_V-46" value="&lt;h3&gt;&lt;font style=&quot;font-size: 25px;&quot;&gt;Name&lt;/font&gt;&lt;/h3&gt;" style="ellipse;whiteSpace=wrap;html=1;strokeWidth=5;" vertex="1" parent="1">
          <mxGeometry x="-720" y="190" width="190" height="80" as="geometry" />
        </mxCell>
        <mxCell id="2N4jEaxHrkHUBaCKsy_V-47" value="&lt;h3&gt;&lt;font style=&quot;font-size: 25px;&quot;&gt;Description&lt;/font&gt;&lt;/h3&gt;" style="ellipse;whiteSpace=wrap;html=1;strokeWidth=5;" vertex="1" parent="1">
          <mxGeometry x="-700" y="380" width="210" height="80" as="geometry" />
        </mxCell>
        <mxCell id="2N4jEaxHrkHUBaCKsy_V-48" value="&lt;h3&gt;&lt;font style=&quot;font-size: 25px;&quot;&gt;Location&lt;/font&gt;&lt;/h3&gt;" style="ellipse;whiteSpace=wrap;html=1;strokeWidth=5;" vertex="1" parent="1">
          <mxGeometry x="-600" y="540" width="210" height="80" as="geometry" />
        </mxCell>
        <mxCell id="2N4jEaxHrkHUBaCKsy_V-49" value="&lt;h3&gt;&lt;font style=&quot;font-size: 25px;&quot;&gt;Pricepernight&lt;/font&gt;&lt;/h3&gt;" style="ellipse;whiteSpace=wrap;html=1;strokeWidth=5;" vertex="1" parent="1">
          <mxGeometry x="-325" y="620" width="260" height="80" as="geometry" />
        </mxCell>
        <mxCell id="2N4jEaxHrkHUBaCKsy_V-50" value="&lt;h3&gt;&lt;font style=&quot;font-size: 25px;&quot;&gt;Created_at&lt;/font&gt;&lt;/h3&gt;" style="ellipse;whiteSpace=wrap;html=1;strokeWidth=5;" vertex="1" parent="1">
          <mxGeometry x="-515" y="-100" width="190" height="80" as="geometry" />
        </mxCell>
        <mxCell id="2N4jEaxHrkHUBaCKsy_V-51" value="&lt;h3&gt;&lt;font style=&quot;font-size: 25px;&quot;&gt;Update_at&lt;/font&gt;&lt;/h3&gt;" style="ellipse;whiteSpace=wrap;html=1;strokeWidth=5;" vertex="1" parent="1">
          <mxGeometry x="-275" y="-150" width="210" height="80" as="geometry" />
        </mxCell>
        <mxCell id="2N4jEaxHrkHUBaCKsy_V-52" value="&lt;h3&gt;&lt;font style=&quot;font-size: 25px;&quot;&gt;Sender_id&lt;/font&gt;&lt;/h3&gt;" style="ellipse;whiteSpace=wrap;html=1;strokeWidth=5;" vertex="1" parent="1">
          <mxGeometry x="1275" y="-520" width="180" height="80" as="geometry" />
        </mxCell>
        <mxCell id="2N4jEaxHrkHUBaCKsy_V-53" value="&lt;h3&gt;&lt;font style=&quot;font-size: 25px;&quot;&gt;Message_id&lt;/font&gt;&lt;/h3&gt;" style="ellipse;whiteSpace=wrap;html=1;strokeWidth=5;" vertex="1" parent="1">
          <mxGeometry x="1455" y="-480" width="190" height="80" as="geometry" />
        </mxCell>
        <mxCell id="2N4jEaxHrkHUBaCKsy_V-56" value="&lt;h3&gt;&lt;font style=&quot;font-size: 25px;&quot;&gt;Recipient_id&lt;/font&gt;&lt;/h3&gt;" style="ellipse;whiteSpace=wrap;html=1;" vertex="1" parent="1">
          <mxGeometry x="1560" y="-380" width="240" height="80" as="geometry" />
        </mxCell>
        <mxCell id="2N4jEaxHrkHUBaCKsy_V-125" value="" style="edgeStyle=orthogonalEdgeStyle;rounded=0;orthogonalLoop=1;jettySize=auto;html=1;" edge="1" parent="1" source="2N4jEaxHrkHUBaCKsy_V-58" target="2N4jEaxHrkHUBaCKsy_V-124">
          <mxGeometry relative="1" as="geometry" />
        </mxCell>
        <mxCell id="2N4jEaxHrkHUBaCKsy_V-58" value="&lt;h3&gt;&lt;font style=&quot;font-size: 25px;&quot;&gt;Sender_id&lt;/font&gt;&lt;/h3&gt;" style="ellipse;whiteSpace=wrap;html=1;" vertex="1" parent="1">
          <mxGeometry x="1620" y="-270" width="210" height="80" as="geometry" />
        </mxCell>
        <mxCell id="2N4jEaxHrkHUBaCKsy_V-59" value="&lt;h3&gt;&lt;font style=&quot;font-size: 25px;&quot;&gt;Massage_body&lt;/font&gt;&lt;/h3&gt;" style="ellipse;whiteSpace=wrap;html=1;strokeWidth=5;" vertex="1" parent="1">
          <mxGeometry x="1020" y="-520" width="220" height="80" as="geometry" />
        </mxCell>
        <mxCell id="2N4jEaxHrkHUBaCKsy_V-60" value="&lt;font style=&quot;font-size: 25px;&quot;&gt;&lt;b&gt;Email&lt;/b&gt;&lt;/font&gt;" style="ellipse;whiteSpace=wrap;html=1;strokeWidth=5;" vertex="1" parent="1">
          <mxGeometry x="370" y="70" width="170" height="80" as="geometry" />
        </mxCell>
        <mxCell id="2N4jEaxHrkHUBaCKsy_V-61" value="&lt;h3&gt;&lt;u&gt;&lt;font style=&quot;font-size: 25px;&quot;&gt;User_id&lt;/font&gt;&lt;/u&gt;&lt;/h3&gt;" style="ellipse;whiteSpace=wrap;html=1;strokeWidth=5;" vertex="1" parent="1">
          <mxGeometry x="1050" y="60" width="180" height="80" as="geometry" />
        </mxCell>
        <mxCell id="2N4jEaxHrkHUBaCKsy_V-62" value="&lt;h3&gt;&lt;font style=&quot;font-size: 25px;&quot;&gt;First_name&lt;/font&gt;&lt;/h3&gt;" style="ellipse;whiteSpace=wrap;html=1;strokeWidth=5;" vertex="1" parent="1">
          <mxGeometry x="1035" y="350" width="240" height="70" as="geometry" />
        </mxCell>
        <mxCell id="2N4jEaxHrkHUBaCKsy_V-63" value="&lt;h3&gt;&lt;font style=&quot;font-size: 25px;&quot;&gt;Last_name&lt;/font&gt;&lt;/h3&gt;" style="ellipse;whiteSpace=wrap;html=1;strokeWidth=5;" vertex="1" parent="1">
          <mxGeometry x="880" y="450" width="220" height="80" as="geometry" />
        </mxCell>
        <mxCell id="2N4jEaxHrkHUBaCKsy_V-64" value="&lt;h3&gt;&lt;font style=&quot;font-size: 25px;&quot;&gt;Phone_number&lt;/font&gt;&lt;/h3&gt;" style="ellipse;whiteSpace=wrap;html=1;strokeWidth=5;" vertex="1" parent="1">
          <mxGeometry x="480" y="460" width="200" height="80" as="geometry" />
        </mxCell>
        <mxCell id="2N4jEaxHrkHUBaCKsy_V-65" value="&lt;h3&gt;&lt;font style=&quot;font-size: 25px;&quot;&gt;Password_hash&lt;/font&gt;&lt;/h3&gt;" style="ellipse;whiteSpace=wrap;html=1;strokeWidth=5;" vertex="1" parent="1">
          <mxGeometry x="290" y="330" width="240" height="80" as="geometry" />
        </mxCell>
        <mxCell id="2N4jEaxHrkHUBaCKsy_V-66" value="&lt;h3&gt;&lt;font style=&quot;font-size: 25px;&quot;&gt;Role&lt;/font&gt;&lt;/h3&gt;" style="ellipse;whiteSpace=wrap;html=1;strokeWidth=5;" vertex="1" parent="1">
          <mxGeometry x="620" y="-70" width="180" height="80" as="geometry" />
        </mxCell>
        <mxCell id="2N4jEaxHrkHUBaCKsy_V-67" value="&lt;h3&gt;&lt;font style=&quot;font-size: 25px;&quot;&gt;Created_at&lt;/font&gt;&lt;/h3&gt;" style="ellipse;whiteSpace=wrap;html=1;strokeWidth=5;" vertex="1" parent="1">
          <mxGeometry x="820" y="-70" width="180" height="80" as="geometry" />
        </mxCell>
        <mxCell id="2N4jEaxHrkHUBaCKsy_V-82" value="" style="endArrow=none;html=1;rounded=0;fontStyle=1;labelBorderColor=default;textShadow=1;textOpacity=10;spacingLeft=5;spacingBottom=5;spacingRight=5;shadow=1;strokeWidth=5;exitX=1;exitY=0.5;exitDx=0;exitDy=0;entryX=0;entryY=0.5;entryDx=0;entryDy=0;" edge="1" parent="1" source="2N4jEaxHrkHUBaCKsy_V-7" target="2N4jEaxHrkHUBaCKsy_V-1">
          <mxGeometry width="50" height="50" relative="1" as="geometry">
            <mxPoint x="80" y="80" as="sourcePoint" />
            <mxPoint x="620" y="300" as="targetPoint" />
          </mxGeometry>
        </mxCell>
        <mxCell id="2N4jEaxHrkHUBaCKsy_V-83" value="" style="endArrow=none;html=1;rounded=0;entryX=0;entryY=0.5;entryDx=0;entryDy=0;exitX=1;exitY=0.5;exitDx=0;exitDy=0;strokeWidth=5;" edge="1" parent="1" source="2N4jEaxHrkHUBaCKsy_V-1" target="2N4jEaxHrkHUBaCKsy_V-5">
          <mxGeometry width="50" height="50" relative="1" as="geometry">
            <mxPoint x="80" y="80" as="sourcePoint" />
            <mxPoint x="130" y="30" as="targetPoint" />
          </mxGeometry>
        </mxCell>
        <mxCell id="2N4jEaxHrkHUBaCKsy_V-85" value="" style="endArrow=none;html=1;rounded=0;fontStyle=1;labelBorderColor=default;textShadow=1;textOpacity=10;spacingLeft=5;spacingBottom=5;spacingRight=5;shadow=1;strokeWidth=5;entryX=0.5;entryY=1;entryDx=0;entryDy=0;exitX=0.5;exitY=0;exitDx=0;exitDy=0;" edge="1" parent="1" source="2N4jEaxHrkHUBaCKsy_V-6" target="2N4jEaxHrkHUBaCKsy_V-1">
          <mxGeometry width="50" height="50" relative="1" as="geometry">
            <mxPoint x="750" y="710" as="sourcePoint" />
            <mxPoint x="720" y="270" as="targetPoint" />
            <Array as="points" />
          </mxGeometry>
        </mxCell>
        <mxCell id="2N4jEaxHrkHUBaCKsy_V-86" value="" style="endArrow=none;html=1;rounded=0;entryX=0.5;entryY=1;entryDx=0;entryDy=0;exitX=0;exitY=0;exitDx=0;exitDy=0;strokeWidth=5;" edge="1" parent="1" source="2N4jEaxHrkHUBaCKsy_V-1" target="2N4jEaxHrkHUBaCKsy_V-2">
          <mxGeometry width="50" height="50" relative="1" as="geometry">
            <mxPoint x="770" y="-340" as="sourcePoint" />
            <mxPoint x="820" y="-390" as="targetPoint" />
          </mxGeometry>
        </mxCell>
        <mxCell id="2N4jEaxHrkHUBaCKsy_V-87" value="" style="endArrow=none;html=1;rounded=0;entryX=0.5;entryY=1;entryDx=0;entryDy=0;exitX=1;exitY=0;exitDx=0;exitDy=0;strokeWidth=5;" edge="1" parent="1" source="2N4jEaxHrkHUBaCKsy_V-1" target="2N4jEaxHrkHUBaCKsy_V-4">
          <mxGeometry width="50" height="50" relative="1" as="geometry">
            <mxPoint x="770" y="-340" as="sourcePoint" />
            <mxPoint x="820" y="-390" as="targetPoint" />
          </mxGeometry>
        </mxCell>
        <mxCell id="2N4jEaxHrkHUBaCKsy_V-88" value="" style="endArrow=none;html=1;rounded=0;entryX=1;entryY=1;entryDx=0;entryDy=0;exitX=0;exitY=0.25;exitDx=0;exitDy=0;strokeWidth=5;" edge="1" parent="1" source="2N4jEaxHrkHUBaCKsy_V-1" target="2N4jEaxHrkHUBaCKsy_V-60">
          <mxGeometry width="50" height="50" relative="1" as="geometry">
            <mxPoint x="530" y="200" as="sourcePoint" />
            <mxPoint x="580" y="150" as="targetPoint" />
          </mxGeometry>
        </mxCell>
        <mxCell id="2N4jEaxHrkHUBaCKsy_V-89" value="" style="endArrow=none;html=1;rounded=0;entryX=0.5;entryY=1;entryDx=0;entryDy=0;exitX=0.25;exitY=0;exitDx=0;exitDy=0;strokeWidth=5;" edge="1" parent="1" source="2N4jEaxHrkHUBaCKsy_V-1" target="2N4jEaxHrkHUBaCKsy_V-66">
          <mxGeometry width="50" height="50" relative="1" as="geometry">
            <mxPoint x="530" y="200" as="sourcePoint" />
            <mxPoint x="580" y="150" as="targetPoint" />
          </mxGeometry>
        </mxCell>
        <mxCell id="2N4jEaxHrkHUBaCKsy_V-90" value="" style="endArrow=none;html=1;rounded=0;entryX=0.398;entryY=0.945;entryDx=0;entryDy=0;entryPerimeter=0;exitX=0.75;exitY=0;exitDx=0;exitDy=0;strokeWidth=5;" edge="1" parent="1" source="2N4jEaxHrkHUBaCKsy_V-1" target="2N4jEaxHrkHUBaCKsy_V-67">
          <mxGeometry width="50" height="50" relative="1" as="geometry">
            <mxPoint x="530" y="200" as="sourcePoint" />
            <mxPoint x="580" y="150" as="targetPoint" />
          </mxGeometry>
        </mxCell>
        <mxCell id="2N4jEaxHrkHUBaCKsy_V-91" value="" style="endArrow=none;html=1;rounded=0;entryX=0.24;entryY=0.88;entryDx=0;entryDy=0;entryPerimeter=0;exitX=1;exitY=0.25;exitDx=0;exitDy=0;strokeWidth=5;" edge="1" parent="1" source="2N4jEaxHrkHUBaCKsy_V-1" target="2N4jEaxHrkHUBaCKsy_V-61">
          <mxGeometry width="50" height="50" relative="1" as="geometry">
            <mxPoint x="530" y="200" as="sourcePoint" />
            <mxPoint x="580" y="150" as="targetPoint" />
          </mxGeometry>
        </mxCell>
        <mxCell id="2N4jEaxHrkHUBaCKsy_V-92" value="" style="endArrow=none;html=1;rounded=0;entryX=0;entryY=0.75;entryDx=0;entryDy=0;strokeWidth=5;" edge="1" parent="1" source="2N4jEaxHrkHUBaCKsy_V-65" target="2N4jEaxHrkHUBaCKsy_V-1">
          <mxGeometry width="50" height="50" relative="1" as="geometry">
            <mxPoint x="530" y="200" as="sourcePoint" />
            <mxPoint x="580" y="150" as="targetPoint" />
          </mxGeometry>
        </mxCell>
        <mxCell id="2N4jEaxHrkHUBaCKsy_V-93" value="" style="endArrow=none;html=1;rounded=0;entryX=0.154;entryY=1.035;entryDx=0;entryDy=0;entryPerimeter=0;exitX=0.56;exitY=0.024;exitDx=0;exitDy=0;exitPerimeter=0;strokeWidth=5;" edge="1" parent="1" source="2N4jEaxHrkHUBaCKsy_V-64" target="2N4jEaxHrkHUBaCKsy_V-1">
          <mxGeometry width="50" height="50" relative="1" as="geometry">
            <mxPoint x="530" y="240" as="sourcePoint" />
            <mxPoint x="580" y="190" as="targetPoint" />
          </mxGeometry>
        </mxCell>
        <mxCell id="2N4jEaxHrkHUBaCKsy_V-94" value="" style="endArrow=none;html=1;rounded=0;entryX=0.064;entryY=0.313;entryDx=0;entryDy=0;entryPerimeter=0;exitX=1;exitY=1;exitDx=0;exitDy=0;strokeWidth=5;" edge="1" parent="1" source="2N4jEaxHrkHUBaCKsy_V-1" target="2N4jEaxHrkHUBaCKsy_V-62">
          <mxGeometry width="50" height="50" relative="1" as="geometry">
            <mxPoint x="530" y="240" as="sourcePoint" />
            <mxPoint x="580" y="190" as="targetPoint" />
          </mxGeometry>
        </mxCell>
        <mxCell id="2N4jEaxHrkHUBaCKsy_V-95" value="" style="endArrow=none;html=1;rounded=0;entryX=0;entryY=0;entryDx=0;entryDy=0;exitX=0.75;exitY=1;exitDx=0;exitDy=0;strokeWidth=5;" edge="1" parent="1" source="2N4jEaxHrkHUBaCKsy_V-1" target="2N4jEaxHrkHUBaCKsy_V-63">
          <mxGeometry width="50" height="50" relative="1" as="geometry">
            <mxPoint x="530" y="240" as="sourcePoint" />
            <mxPoint x="580" y="190" as="targetPoint" />
          </mxGeometry>
        </mxCell>
        <mxCell id="2N4jEaxHrkHUBaCKsy_V-96" value="" style="endArrow=none;html=1;rounded=0;entryX=0.5;entryY=1;entryDx=0;entryDy=0;exitX=0.41;exitY=0.024;exitDx=0;exitDy=0;exitPerimeter=0;strokeWidth=5;" edge="1" parent="1" source="2N4jEaxHrkHUBaCKsy_V-7" target="2N4jEaxHrkHUBaCKsy_V-51">
          <mxGeometry width="50" height="50" relative="1" as="geometry">
            <mxPoint x="-20" y="370" as="sourcePoint" />
            <mxPoint x="30" y="320" as="targetPoint" />
          </mxGeometry>
        </mxCell>
        <mxCell id="2N4jEaxHrkHUBaCKsy_V-97" value="" style="endArrow=none;html=1;rounded=0;entryX=0.754;entryY=0.978;entryDx=0;entryDy=0;entryPerimeter=0;exitX=0.171;exitY=-0.058;exitDx=0;exitDy=0;exitPerimeter=0;strokeWidth=5;" edge="1" parent="1" source="2N4jEaxHrkHUBaCKsy_V-7" target="2N4jEaxHrkHUBaCKsy_V-50">
          <mxGeometry width="50" height="50" relative="1" as="geometry">
            <mxPoint x="-20" y="370" as="sourcePoint" />
            <mxPoint x="30" y="320" as="targetPoint" />
          </mxGeometry>
        </mxCell>
        <mxCell id="2N4jEaxHrkHUBaCKsy_V-98" value="" style="endArrow=none;html=1;rounded=0;entryX=0.759;entryY=0.878;entryDx=0;entryDy=0;entryPerimeter=0;exitX=0;exitY=0.25;exitDx=0;exitDy=0;strokeWidth=5;" edge="1" parent="1" source="2N4jEaxHrkHUBaCKsy_V-7" target="2N4jEaxHrkHUBaCKsy_V-45">
          <mxGeometry width="50" height="50" relative="1" as="geometry">
            <mxPoint x="-20" y="370" as="sourcePoint" />
            <mxPoint x="30" y="320" as="targetPoint" />
          </mxGeometry>
        </mxCell>
        <mxCell id="2N4jEaxHrkHUBaCKsy_V-99" value="" style="endArrow=none;html=1;rounded=0;exitX=1;exitY=0.5;exitDx=0;exitDy=0;entryX=0;entryY=0.5;entryDx=0;entryDy=0;strokeWidth=5;" edge="1" parent="1" source="2N4jEaxHrkHUBaCKsy_V-46" target="2N4jEaxHrkHUBaCKsy_V-7">
          <mxGeometry width="50" height="50" relative="1" as="geometry">
            <mxPoint x="-20" y="370" as="sourcePoint" />
            <mxPoint x="30" y="320" as="targetPoint" />
          </mxGeometry>
        </mxCell>
        <mxCell id="2N4jEaxHrkHUBaCKsy_V-100" value="" style="endArrow=none;html=1;rounded=0;exitX=1;exitY=0.5;exitDx=0;exitDy=0;entryX=0;entryY=0.75;entryDx=0;entryDy=0;strokeWidth=5;" edge="1" parent="1" source="2N4jEaxHrkHUBaCKsy_V-47" target="2N4jEaxHrkHUBaCKsy_V-7">
          <mxGeometry width="50" height="50" relative="1" as="geometry">
            <mxPoint x="-50" y="310" as="sourcePoint" />
            <mxPoint y="260" as="targetPoint" />
          </mxGeometry>
        </mxCell>
        <mxCell id="2N4jEaxHrkHUBaCKsy_V-101" value="" style="endArrow=none;html=1;rounded=0;exitX=0.8;exitY=0.132;exitDx=0;exitDy=0;exitPerimeter=0;entryX=0.25;entryY=1;entryDx=0;entryDy=0;strokeWidth=5;" edge="1" parent="1" source="2N4jEaxHrkHUBaCKsy_V-48" target="2N4jEaxHrkHUBaCKsy_V-7">
          <mxGeometry width="50" height="50" relative="1" as="geometry">
            <mxPoint y="290" as="sourcePoint" />
            <mxPoint x="50" y="240" as="targetPoint" />
          </mxGeometry>
        </mxCell>
        <mxCell id="2N4jEaxHrkHUBaCKsy_V-102" value="" style="endArrow=none;html=1;rounded=0;entryX=0.5;entryY=1;entryDx=0;entryDy=0;exitX=0.404;exitY=0.125;exitDx=0;exitDy=0;exitPerimeter=0;strokeWidth=5;" edge="1" parent="1" source="2N4jEaxHrkHUBaCKsy_V-49" target="2N4jEaxHrkHUBaCKsy_V-7">
          <mxGeometry width="50" height="50" relative="1" as="geometry">
            <mxPoint y="290" as="sourcePoint" />
            <mxPoint x="50" y="240" as="targetPoint" />
          </mxGeometry>
        </mxCell>
        <mxCell id="2N4jEaxHrkHUBaCKsy_V-103" value="" style="endArrow=none;html=1;rounded=0;exitX=0.639;exitY=0;exitDx=0;exitDy=0;exitPerimeter=0;entryX=0.339;entryY=1.001;entryDx=0;entryDy=0;entryPerimeter=0;strokeWidth=5;" edge="1" parent="1" source="2N4jEaxHrkHUBaCKsy_V-2" target="2N4jEaxHrkHUBaCKsy_V-8">
          <mxGeometry width="50" height="50" relative="1" as="geometry">
            <mxPoint x="440" y="-630" as="sourcePoint" />
            <mxPoint x="490" y="-680" as="targetPoint" />
          </mxGeometry>
        </mxCell>
        <mxCell id="2N4jEaxHrkHUBaCKsy_V-104" value="" style="endArrow=none;html=1;rounded=0;entryX=0.5;entryY=1;entryDx=0;entryDy=0;strokeWidth=5;" edge="1" parent="1" target="2N4jEaxHrkHUBaCKsy_V-10">
          <mxGeometry width="50" height="50" relative="1" as="geometry">
            <mxPoint x="300" y="-520" as="sourcePoint" />
            <mxPoint x="490" y="-680" as="targetPoint" />
          </mxGeometry>
        </mxCell>
        <mxCell id="2N4jEaxHrkHUBaCKsy_V-105" value="" style="endArrow=none;html=1;rounded=0;entryX=0;entryY=0;entryDx=0;entryDy=0;exitX=0.5;exitY=1;exitDx=0;exitDy=0;strokeWidth=5;" edge="1" parent="1" source="2N4jEaxHrkHUBaCKsy_V-11" target="2N4jEaxHrkHUBaCKsy_V-2">
          <mxGeometry width="50" height="50" relative="1" as="geometry">
            <mxPoint x="50" y="-710" as="sourcePoint" />
            <mxPoint x="490" y="-680" as="targetPoint" />
          </mxGeometry>
        </mxCell>
        <mxCell id="2N4jEaxHrkHUBaCKsy_V-106" value="" style="endArrow=none;html=1;rounded=0;entryX=1;entryY=1;entryDx=0;entryDy=0;exitX=0;exitY=0.75;exitDx=0;exitDy=0;strokeWidth=5;" edge="1" parent="1" source="2N4jEaxHrkHUBaCKsy_V-2" target="2N4jEaxHrkHUBaCKsy_V-12">
          <mxGeometry width="50" height="50" relative="1" as="geometry">
            <mxPoint x="230" y="-480" as="sourcePoint" />
            <mxPoint x="490" y="-680" as="targetPoint" />
          </mxGeometry>
        </mxCell>
        <mxCell id="2N4jEaxHrkHUBaCKsy_V-107" value="" style="endArrow=none;html=1;rounded=0;entryX=0.5;entryY=1;entryDx=0;entryDy=0;strokeWidth=5;exitX=0.371;exitY=-0.01;exitDx=0;exitDy=0;exitPerimeter=0;" edge="1" parent="1" source="2N4jEaxHrkHUBaCKsy_V-4" target="2N4jEaxHrkHUBaCKsy_V-59">
          <mxGeometry width="50" height="50" relative="1" as="geometry">
            <mxPoint x="1250" y="-250" as="sourcePoint" />
            <mxPoint x="1230" y="-430" as="targetPoint" />
          </mxGeometry>
        </mxCell>
        <mxCell id="2N4jEaxHrkHUBaCKsy_V-108" value="" style="endArrow=none;html=1;rounded=0;entryX=0.383;entryY=0.973;entryDx=0;entryDy=0;entryPerimeter=0;exitX=0.75;exitY=0;exitDx=0;exitDy=0;strokeWidth=5;" edge="1" parent="1" source="2N4jEaxHrkHUBaCKsy_V-4" target="2N4jEaxHrkHUBaCKsy_V-52">
          <mxGeometry width="50" height="50" relative="1" as="geometry">
            <mxPoint x="1180" y="-380" as="sourcePoint" />
            <mxPoint x="1230" y="-430" as="targetPoint" />
          </mxGeometry>
        </mxCell>
        <mxCell id="2N4jEaxHrkHUBaCKsy_V-109" value="" style="endArrow=none;html=1;rounded=0;entryX=0.308;entryY=0.953;entryDx=0;entryDy=0;entryPerimeter=0;exitX=1;exitY=0;exitDx=0;exitDy=0;strokeWidth=5;" edge="1" parent="1" source="2N4jEaxHrkHUBaCKsy_V-4" target="2N4jEaxHrkHUBaCKsy_V-53">
          <mxGeometry width="50" height="50" relative="1" as="geometry">
            <mxPoint x="1180" y="-380" as="sourcePoint" />
            <mxPoint x="1230" y="-430" as="targetPoint" />
          </mxGeometry>
        </mxCell>
        <mxCell id="2N4jEaxHrkHUBaCKsy_V-110" value="" style="endArrow=none;html=1;rounded=0;entryX=0;entryY=0.5;entryDx=0;entryDy=0;exitX=1;exitY=0.25;exitDx=0;exitDy=0;strokeWidth=5;" edge="1" parent="1" source="2N4jEaxHrkHUBaCKsy_V-4" target="2N4jEaxHrkHUBaCKsy_V-56">
          <mxGeometry width="50" height="50" relative="1" as="geometry">
            <mxPoint x="1180" y="-380" as="sourcePoint" />
            <mxPoint x="1230" y="-430" as="targetPoint" />
          </mxGeometry>
        </mxCell>
        <mxCell id="2N4jEaxHrkHUBaCKsy_V-111" value="" style="endArrow=none;html=1;rounded=0;entryX=0.042;entryY=0.621;entryDx=0;entryDy=0;entryPerimeter=0;exitX=1;exitY=0.5;exitDx=0;exitDy=0;strokeWidth=5;" edge="1" parent="1" source="2N4jEaxHrkHUBaCKsy_V-4" target="2N4jEaxHrkHUBaCKsy_V-58">
          <mxGeometry width="50" height="50" relative="1" as="geometry">
            <mxPoint x="1180" y="-380" as="sourcePoint" />
            <mxPoint x="1230" y="-430" as="targetPoint" />
          </mxGeometry>
        </mxCell>
        <mxCell id="2N4jEaxHrkHUBaCKsy_V-112" value="" style="endArrow=none;html=1;rounded=0;exitX=0.5;exitY=0;exitDx=0;exitDy=0;strokeWidth=5;" edge="1" parent="1" source="2N4jEaxHrkHUBaCKsy_V-5" target="2N4jEaxHrkHUBaCKsy_V-13">
          <mxGeometry width="50" height="50" relative="1" as="geometry">
            <mxPoint x="1760" y="160" as="sourcePoint" />
            <mxPoint x="1810" y="110" as="targetPoint" />
          </mxGeometry>
        </mxCell>
        <mxCell id="2N4jEaxHrkHUBaCKsy_V-113" value="" style="endArrow=none;html=1;rounded=0;entryX=0;entryY=0.5;entryDx=0;entryDy=0;exitX=1;exitY=0.25;exitDx=0;exitDy=0;strokeWidth=5;" edge="1" parent="1" source="2N4jEaxHrkHUBaCKsy_V-5" target="2N4jEaxHrkHUBaCKsy_V-122">
          <mxGeometry width="50" height="50" relative="1" as="geometry">
            <mxPoint x="1760" y="160" as="sourcePoint" />
            <mxPoint x="2020" y="210" as="targetPoint" />
          </mxGeometry>
        </mxCell>
        <mxCell id="2N4jEaxHrkHUBaCKsy_V-114" value="" style="endArrow=none;html=1;rounded=0;entryX=0;entryY=0.5;entryDx=0;entryDy=0;exitX=1;exitY=0.75;exitDx=0;exitDy=0;strokeWidth=5;" edge="1" parent="1" source="2N4jEaxHrkHUBaCKsy_V-5" target="2N4jEaxHrkHUBaCKsy_V-15">
          <mxGeometry width="50" height="50" relative="1" as="geometry">
            <mxPoint x="1760" y="160" as="sourcePoint" />
            <mxPoint x="1810" y="110" as="targetPoint" />
          </mxGeometry>
        </mxCell>
        <mxCell id="2N4jEaxHrkHUBaCKsy_V-115" value="" style="endArrow=none;html=1;rounded=0;exitX=0.408;exitY=1.032;exitDx=0;exitDy=0;exitPerimeter=0;strokeWidth=5;" edge="1" parent="1" source="2N4jEaxHrkHUBaCKsy_V-5" target="2N4jEaxHrkHUBaCKsy_V-16">
          <mxGeometry width="50" height="50" relative="1" as="geometry">
            <mxPoint x="1760" y="160" as="sourcePoint" />
            <mxPoint x="1810" y="110" as="targetPoint" />
          </mxGeometry>
        </mxCell>
        <mxCell id="2N4jEaxHrkHUBaCKsy_V-116" value="" style="endArrow=none;html=1;rounded=0;exitX=1;exitY=0.5;exitDx=0;exitDy=0;entryX=0;entryY=0.5;entryDx=0;entryDy=0;strokeWidth=5;" edge="1" parent="1" source="2N4jEaxHrkHUBaCKsy_V-43" target="2N4jEaxHrkHUBaCKsy_V-6">
          <mxGeometry width="50" height="50" relative="1" as="geometry">
            <mxPoint x="620" y="830" as="sourcePoint" />
            <mxPoint x="670" y="780" as="targetPoint" />
          </mxGeometry>
        </mxCell>
        <mxCell id="2N4jEaxHrkHUBaCKsy_V-117" value="" style="endArrow=none;html=1;rounded=0;entryX=0;entryY=1;entryDx=0;entryDy=0;exitX=0.773;exitY=0.103;exitDx=0;exitDy=0;exitPerimeter=0;strokeWidth=5;" edge="1" parent="1" source="2N4jEaxHrkHUBaCKsy_V-42" target="2N4jEaxHrkHUBaCKsy_V-6">
          <mxGeometry width="50" height="50" relative="1" as="geometry">
            <mxPoint x="620" y="830" as="sourcePoint" />
            <mxPoint x="670" y="780" as="targetPoint" />
          </mxGeometry>
        </mxCell>
        <mxCell id="2N4jEaxHrkHUBaCKsy_V-118" value="" style="endArrow=none;html=1;rounded=0;entryX=0.25;entryY=1;entryDx=0;entryDy=0;exitX=0.5;exitY=0;exitDx=0;exitDy=0;strokeWidth=5;" edge="1" parent="1" source="2N4jEaxHrkHUBaCKsy_V-41" target="2N4jEaxHrkHUBaCKsy_V-6">
          <mxGeometry width="50" height="50" relative="1" as="geometry">
            <mxPoint x="620" y="830" as="sourcePoint" />
            <mxPoint x="670" y="780" as="targetPoint" />
          </mxGeometry>
        </mxCell>
        <mxCell id="2N4jEaxHrkHUBaCKsy_V-119" value="" style="endArrow=none;html=1;rounded=0;exitX=0.209;exitY=0.153;exitDx=0;exitDy=0;exitPerimeter=0;strokeWidth=5;" edge="1" parent="1" source="2N4jEaxHrkHUBaCKsy_V-22">
          <mxGeometry width="50" height="50" relative="1" as="geometry">
            <mxPoint x="620" y="830" as="sourcePoint" />
            <mxPoint x="750" y="800" as="targetPoint" />
          </mxGeometry>
        </mxCell>
        <mxCell id="2N4jEaxHrkHUBaCKsy_V-120" value="" style="endArrow=none;html=1;rounded=0;entryX=0.852;entryY=1.008;entryDx=0;entryDy=0;entryPerimeter=0;strokeWidth=5;" edge="1" parent="1" source="2N4jEaxHrkHUBaCKsy_V-21" target="2N4jEaxHrkHUBaCKsy_V-6">
          <mxGeometry width="50" height="50" relative="1" as="geometry">
            <mxPoint x="620" y="830" as="sourcePoint" />
            <mxPoint x="670" y="780" as="targetPoint" />
          </mxGeometry>
        </mxCell>
        <mxCell id="2N4jEaxHrkHUBaCKsy_V-121" value="" style="endArrow=none;html=1;rounded=0;entryX=0.025;entryY=0.376;entryDx=0;entryDy=0;entryPerimeter=0;exitX=1;exitY=0.5;exitDx=0;exitDy=0;strokeWidth=5;" edge="1" parent="1" source="2N4jEaxHrkHUBaCKsy_V-6" target="2N4jEaxHrkHUBaCKsy_V-18">
          <mxGeometry width="50" height="50" relative="1" as="geometry">
            <mxPoint x="620" y="830" as="sourcePoint" />
            <mxPoint x="670" y="780" as="targetPoint" />
          </mxGeometry>
        </mxCell>
        <mxCell id="2N4jEaxHrkHUBaCKsy_V-122" value="&lt;h3&gt;Payment_date&lt;/h3&gt;" style="ellipse;whiteSpace=wrap;html=1;fontSize=25;strokeWidth=5;" vertex="1" parent="1">
          <mxGeometry x="2030" y="150" width="210" height="80" as="geometry" />
        </mxCell>
        <mxCell id="2N4jEaxHrkHUBaCKsy_V-124" value="&lt;h3&gt;&lt;font style=&quot;font-size: 25px;&quot;&gt;Sender_id&lt;/font&gt;&lt;/h3&gt;" style="ellipse;whiteSpace=wrap;html=1;strokeWidth=5;" vertex="1" parent="1">
          <mxGeometry x="1620" y="-430" width="210" height="80" as="geometry" />
        </mxCell>
        <mxCell id="2N4jEaxHrkHUBaCKsy_V-126" value="BOOKING" style="rounded=0;whiteSpace=wrap;fontSize=32;strokeWidth=5;" vertex="1" parent="1">
          <mxGeometry x="670" y="735" width="160" height="60" as="geometry" />
        </mxCell>
        <mxCell id="2N4jEaxHrkHUBaCKsy_V-127" value="&lt;font style=&quot;font-size: 32px;&quot;&gt;USER&lt;/font&gt;" style="rounded=0;whiteSpace=wrap;html=1;fontSize=42;strokeWidth=5;" vertex="1" parent="1">
          <mxGeometry x="710" y="225" width="120" height="60" as="geometry" />
        </mxCell>
      </root>
    </mxGraphModel>
  </diagram>
  <diagram id="Jx4bOU3FvcQJt2yT5frk" name="Page-2">
    <mxGraphModel dx="1042" dy="626" grid="1" gridSize="10" guides="1" tooltips="1" connect="1" arrows="1" fold="1" page="1" pageScale="1" pageWidth="850" pageHeight="1100" math="0" shadow="0">
      <root>
        <mxCell id="0" />
        <mxCell id="1" parent="0" />
      </root>
    </mxGraphModel>
  </diagram>
</mxfile>
